<svg width="87" height="22" viewBox="0 0 87 22" fill="none" xmlns="http://www.w3.org/2000/svg">
<path d="M7.05469 6.30469C6.55469 6.30469 6.04688 6.35156 5.53125 6.44531C5.03125 6.53906 4.53125 6.64844 4.03125 6.77344C3.53125 6.88281 3.03125 6.98438 2.53125 7.07812C2.03125 7.17188 1.52344 7.21875 1.00781 7.21875C0.851562 7.21875 0.6875 7.20312 0.515625 7.17188C0.359375 7.125 0.28125 6.98438 0.28125 6.75C0.28125 6.59375 0.34375 6.4375 0.46875 6.28125C0.609375 6.10938 0.757812 6.01562 0.914062 6L7.19531 5.08594C7.21094 5.02344 7.23438 4.92969 7.26562 4.80469C7.29688 4.66406 7.33594 4.53125 7.38281 4.40625C7.44531 4.26562 7.52344 4.14844 7.61719 4.05469C7.71094 3.94531 7.82031 3.89062 7.94531 3.89062C8.13281 3.89062 8.28125 3.9375 8.39062 4.03125C8.5 4.125 8.59375 4.23438 8.67188 4.35938C8.75 4.46875 8.82031 4.57031 8.88281 4.66406C8.94531 4.75781 9.02344 4.80469 9.11719 4.80469H9.30469C9.46094 4.78906 9.71094 4.76562 10.0547 4.73438C10.3984 4.6875 10.7891 4.64062 11.2266 4.59375C11.6797 4.54688 12.1562 4.5 12.6562 4.45312C13.1562 4.39062 13.6328 4.34375 14.0859 4.3125C14.5391 4.26562 14.9375 4.22656 15.2812 4.19531C15.625 4.14844 15.875 4.10938 16.0312 4.07812C16.0781 4.07812 16.1875 4.07812 16.3594 4.07812C16.5469 4.0625 16.6797 4.05469 16.7578 4.05469C16.7578 4.35156 16.5938 4.60156 16.2656 4.80469C15.9531 4.99219 15.5469 5.15625 15.0469 5.29688C14.5625 5.42188 14.0156 5.52344 13.4062 5.60156C12.8125 5.66406 12.2266 5.71875 11.6484 5.76562C11.0859 5.8125 10.5625 5.85156 10.0781 5.88281C9.60938 5.91406 9.25 5.95312 9 6C8.9375 7.10938 8.96094 8.26562 9.07031 9.46875C9.19531 10.6719 9.34375 11.8828 9.51562 13.1016C9.70312 14.3203 9.875 15.5312 10.0312 16.7344C10.1875 17.9375 10.2656 19.0859 10.2656 20.1797C10.3281 20.3984 10.3516 20.5703 10.3359 20.6953C10.3359 20.8203 10.2969 20.9062 10.2188 20.9531C10.1406 21 10.0234 21.0234 9.86719 21.0234C9.71094 21.0234 9.52344 21.0156 9.30469 21C9.14844 20.4375 9.00781 19.7812 8.88281 19.0312C8.77344 18.2656 8.67188 17.4531 8.57812 16.5938C8.48438 15.7188 8.39062 14.8203 8.29688 13.8984C8.21875 12.9766 8.14062 12.0625 8.0625 11.1562C7.98438 10.25 7.89844 9.38281 7.80469 8.55469C7.71094 7.72656 7.60156 6.97656 7.47656 6.30469H7.05469ZM21.5625 20.3906C21.4844 19.9844 21.4141 19.5 21.3516 18.9375C21.3047 18.3594 21.25 17.7812 21.1875 17.2031C21.125 16.6094 21.0469 16.0547 20.9531 15.5391C20.875 15.0234 20.75 14.6016 20.5781 14.2734C19.7812 15.8984 19.0781 17.1797 18.4688 18.1172C17.8594 19.0391 17.3203 19.7031 16.8516 20.1094C16.3984 20.5 16.0156 20.6875 15.7031 20.6719C15.3906 20.6562 15.1328 20.5156 14.9297 20.25C14.7266 19.9844 14.5781 19.6484 14.4844 19.2422C14.4062 18.8203 14.3516 18.4297 14.3203 18.0703C14.3203 17.7266 14.3984 17.2422 14.5547 16.6172C14.7109 15.9922 14.9219 15.3125 15.1875 14.5781C15.4531 13.8281 15.7656 13.0703 16.125 12.3047C16.5 11.5391 16.8984 10.8438 17.3203 10.2188C17.7422 9.59375 18.1797 9.07812 18.6328 8.67188C19.0859 8.26562 19.5391 8.0625 19.9922 8.0625C20.6641 7.95312 21.1562 8.10156 21.4688 8.50781C21.7969 8.89844 21.8594 9.5625 21.6562 10.5C21.6562 11.5312 21.6953 12.4141 21.7734 13.1484C21.8672 13.8828 21.9609 14.5859 22.0547 15.2578C22.1641 15.9297 22.2578 16.6328 22.3359 17.3672C22.4297 18.1016 22.4766 18.9844 22.4766 20.0156C22.4766 20.2031 22.4531 20.3672 22.4062 20.5078C22.375 20.6328 22.1875 20.6953 21.8438 20.6953C21.7969 20.6953 21.7344 20.6562 21.6562 20.5781C21.5938 20.5 21.5625 20.4375 21.5625 20.3906ZM20.2969 9.91406C20.125 9.66406 19.8906 9.64062 19.5938 9.84375C19.2969 10.0469 18.9844 10.3828 18.6562 10.8516C18.3281 11.3203 17.9922 11.8828 17.6484 12.5391C17.3047 13.1953 16.9844 13.8594 16.6875 14.5312C16.3906 15.2031 16.1328 15.8438 15.9141 16.4531C15.6953 17.0469 15.5469 17.5391 15.4688 17.9297C15.4688 18.4922 15.5547 18.8125 15.7266 18.8906C15.8984 18.9531 16.1094 18.8594 16.3594 18.6094C16.6094 18.3594 16.8906 18 17.2031 17.5312C17.5312 17.0625 17.8438 16.5625 18.1406 16.0312C18.4531 15.5 18.7422 14.9844 19.0078 14.4844C19.2891 13.9844 19.5078 13.5781 19.6641 13.2656C19.8047 12.9375 19.9141 12.6328 19.9922 12.3516C20.0703 12.0703 20.1328 11.8047 20.1797 11.5547C20.2422 11.2891 20.2734 11.0234 20.2734 10.7578C20.2891 10.4922 20.2969 10.2109 20.2969 9.91406ZM24.1875 19.8047C24.2969 19.0859 24.3672 18.1875 24.3984 17.1094C24.4453 16.0312 24.4609 14.8828 24.4453 13.6641C24.4453 12.4453 24.4219 11.1875 24.375 9.89062C24.3281 8.59375 24.2656 7.36719 24.1875 6.21094C24.1094 5.03906 24.0156 3.99219 23.9062 3.07031C23.8125 2.14844 23.7109 1.42188 23.6016 0.890625C23.7422 0.796875 23.8594 0.726562 23.9531 0.679688C24.0625 0.617188 24.1875 0.585938 24.3281 0.585938C24.4375 0.585938 24.5312 0.609375 24.6094 0.65625C24.6875 0.6875 24.75 0.765625 24.7969 0.890625C25.1094 3.95312 25.3203 7.03906 25.4297 10.1484C25.5547 13.2578 25.6484 16.3516 25.7109 19.4297C25.7109 19.5703 25.7109 19.7656 25.7109 20.0156C25.7109 20.25 25.7031 20.375 25.6875 20.3906C25.4688 20.5 25.2734 20.5547 25.1016 20.5547C24.9297 20.5391 24.7734 20.4922 24.6328 20.4141C24.4922 20.3203 24.3828 20.2188 24.3047 20.1094C24.2266 20 24.1875 19.8984 24.1875 19.8047ZM37.5469 15.9844C37.7344 13.2656 38.125 11.0547 38.7188 9.35156C39.3125 7.63281 40 6.40625 40.7812 5.67188C41.5781 4.9375 42.3984 4.69531 43.2422 4.94531C44.1016 5.17969 44.875 5.89062 45.5625 7.07812C45.7969 7.85938 45.9453 8.73438 46.0078 9.70312C46.0859 10.6719 46.0703 11.6562 45.9609 12.6562C45.8672 13.6406 45.6875 14.6094 45.4219 15.5625C45.1719 16.5156 44.8203 17.375 44.3672 18.1406C43.9141 18.9062 43.375 19.5547 42.75 20.0859C42.125 20.6016 41.4062 20.9141 40.5938 21.0234C40.0156 21.0234 39.5312 20.8438 39.1406 20.4844C38.75 20.125 38.4375 19.6875 38.2031 19.1719C37.9688 18.6406 37.7969 18.0938 37.6875 17.5312C37.5938 16.9531 37.5469 16.4375 37.5469 15.9844ZM38.7891 15.8438C38.7891 16.2344 38.8047 16.6406 38.8359 17.0625C38.8828 17.4844 38.9766 17.875 39.1172 18.2344C39.2578 18.5781 39.4688 18.8672 39.75 19.1016C40.0469 19.3203 40.4375 19.4297 40.9219 19.4297C41.4688 19.4297 41.9688 19.1797 42.4219 18.6797C42.875 18.1797 43.2656 17.5312 43.5938 16.7344C43.9219 15.9375 44.1797 15.0547 44.3672 14.0859C44.5703 13.1172 44.6875 12.1719 44.7188 11.25C44.7656 10.3125 44.7188 9.45312 44.5781 8.67188C44.4531 7.89062 44.2266 7.30469 43.8984 6.91406C43.5703 6.50781 43.1328 6.34375 42.5859 6.42188C42.0547 6.5 41.4141 6.92969 40.6641 7.71094C40.4453 8.35156 40.2266 9.01562 40.0078 9.70312C39.7891 10.375 39.5938 11.0625 39.4219 11.7656C39.25 12.4531 39.1016 13.1406 38.9766 13.8281C38.8516 14.5156 38.7891 15.1875 38.7891 15.8438ZM55.4062 10.7578C54.8281 10.5391 54.2734 10.625 53.7422 11.0156C53.2109 11.4062 52.7031 11.9609 52.2188 12.6797C51.7344 13.3828 51.2734 14.1875 50.8359 15.0938C50.3984 16 49.9922 16.8594 49.6172 17.6719C49.2422 18.4844 48.8984 19.1797 48.5859 19.7578C48.2891 20.3359 48.0156 20.6562 47.7656 20.7188C47.5781 20.7188 47.4297 20.6875 47.3203 20.625C47.2266 20.5469 47.1797 20.3672 47.1797 20.0859V3.60938C47.1797 3.46875 47.2344 3.38281 47.3438 3.35156C47.4688 3.32031 47.6016 3.3125 47.7422 3.32812C47.8828 3.34375 48.0156 3.38281 48.1406 3.44531C48.2656 3.49219 48.3438 3.54688 48.375 3.60938L48.6797 16.8047C48.8516 16.5234 49.0078 16.1328 49.1484 15.6328C49.3047 15.1172 49.4844 14.5703 49.6875 13.9922C49.8906 13.3984 50.125 12.8125 50.3906 12.2344C50.6719 11.6406 51.0156 11.1094 51.4219 10.6406C51.8281 10.1719 52.3203 9.8125 52.8984 9.5625C53.4922 9.29688 54.1875 9.20312 54.9844 9.28125C55.5156 9.28125 55.9453 9.45312 56.2734 9.79688C56.6016 10.125 56.7734 10.5625 56.7891 11.1094L57.0234 20.4609C57.0234 20.5234 57.0078 20.6172 56.9766 20.7422C56.9609 20.8516 56.8984 20.9453 56.7891 21.0234C56.6953 21.1172 56.5547 21.1719 56.3672 21.1875C56.1953 21.2188 55.9688 21.1797 55.6875 21.0703L55.4062 10.7578ZM64.8516 20.3906C64.7734 19.9844 64.7031 19.5 64.6406 18.9375C64.5938 18.3594 64.5391 17.7812 64.4766 17.2031C64.4141 16.6094 64.3359 16.0547 64.2422 15.5391C64.1641 15.0234 64.0391 14.6016 63.8672 14.2734C63.0703 15.8984 62.3672 17.1797 61.7578 18.1172C61.1484 19.0391 60.6094 19.7031 60.1406 20.1094C59.6875 20.5 59.3047 20.6875 58.9922 20.6719C58.6797 20.6562 58.4219 20.5156 58.2188 20.25C58.0156 19.9844 57.8672 19.6484 57.7734 19.2422C57.6953 18.8203 57.6406 18.4297 57.6094 18.0703C57.6094 17.7266 57.6875 17.2422 57.8438 16.6172C58 15.9922 58.2109 15.3125 58.4766 14.5781C58.7422 13.8281 59.0547 13.0703 59.4141 12.3047C59.7891 11.5391 60.1875 10.8438 60.6094 10.2188C61.0312 9.59375 61.4688 9.07812 61.9219 8.67188C62.375 8.26562 62.8281 8.0625 63.2812 8.0625C63.9531 7.95312 64.4453 8.10156 64.7578 8.50781C65.0859 8.89844 65.1484 9.5625 64.9453 10.5C64.9453 11.5312 64.9844 12.4141 65.0625 13.1484C65.1562 13.8828 65.25 14.5859 65.3438 15.2578C65.4531 15.9297 65.5469 16.6328 65.625 17.3672C65.7188 18.1016 65.7656 18.9844 65.7656 20.0156C65.7656 20.2031 65.7422 20.3672 65.6953 20.5078C65.6641 20.6328 65.4766 20.6953 65.1328 20.6953C65.0859 20.6953 65.0234 20.6562 64.9453 20.5781C64.8828 20.5 64.8516 20.4375 64.8516 20.3906ZM63.5859 9.91406C63.4141 9.66406 63.1797 9.64062 62.8828 9.84375C62.5859 10.0469 62.2734 10.3828 61.9453 10.8516C61.6172 11.3203 61.2812 11.8828 60.9375 12.5391C60.5938 13.1953 60.2734 13.8594 59.9766 14.5312C59.6797 15.2031 59.4219 15.8438 59.2031 16.4531C58.9844 17.0469 58.8359 17.5391 58.7578 17.9297C58.7578 18.4922 58.8438 18.8125 59.0156 18.8906C59.1875 18.9531 59.3984 18.8594 59.6484 18.6094C59.8984 18.3594 60.1797 18 60.4922 17.5312C60.8203 17.0625 61.1328 16.5625 61.4297 16.0312C61.7422 15.5 62.0312 14.9844 62.2969 14.4844C62.5781 13.9844 62.7969 13.5781 62.9531 13.2656C63.0938 12.9375 63.2031 12.6328 63.2812 12.3516C63.3594 12.0703 63.4219 11.8047 63.4688 11.5547C63.5312 11.2891 63.5625 11.0234 63.5625 10.7578C63.5781 10.4922 63.5859 10.2109 63.5859 9.91406ZM67.9688 20.6953C67.7969 18.5859 67.6406 16.4766 67.5 14.3672C67.375 12.2422 67.2344 10.0391 67.0781 7.75781C67.0781 7.38281 67.2812 7.19531 67.6875 7.19531H67.875C67.9219 7.19531 67.9766 7.25781 68.0391 7.38281C68.1016 7.50781 68.1641 7.74219 68.2266 8.08594C68.3047 8.41406 68.3828 8.92188 68.4609 9.60938C68.5547 10.2812 68.6641 11.1641 68.7891 12.2578C68.9141 13.3516 69.0547 14.7188 69.2109 16.3594C69.5391 15.2969 69.7969 14.2656 69.9844 13.2656C70.1719 12.2656 70.4141 11.3594 70.7109 10.5469C71.0078 9.71875 71.4219 8.99219 71.9531 8.36719C72.5 7.74219 73.2812 7.28125 74.2969 6.98438C74.8594 7.07812 75.3125 7.42188 75.6562 8.01562C76 8.59375 76.2734 9.3125 76.4766 10.1719C76.6797 11.0312 76.8203 11.9688 76.8984 12.9844C76.9766 13.9844 77.0234 14.9453 77.0391 15.8672C77.0547 16.7891 77.0625 17.6172 77.0625 18.3516C77.0625 19.0703 77.0781 19.5859 77.1094 19.8984C77.0625 20.0234 76.9922 20.1328 76.8984 20.2266C76.8047 20.3203 76.6953 20.3906 76.5703 20.4375C76.4609 20.4688 76.3516 20.4766 76.2422 20.4609C76.1328 20.4297 76.0312 20.3438 75.9375 20.2031C75.9375 20.0312 75.9219 19.6797 75.8906 19.1484C75.8594 18.6172 75.8203 18 75.7734 17.2969C75.7266 16.5781 75.6719 15.8203 75.6094 15.0234C75.5625 14.2109 75.5156 13.4531 75.4688 12.75C75.4375 12.0312 75.4062 11.4062 75.375 10.875C75.3438 10.3438 75.3203 9.99219 75.3047 9.82031C74.9766 9.24219 74.6484 8.91406 74.3203 8.83594C74.0078 8.75781 73.6875 8.85938 73.3594 9.14062C73.0469 9.42188 72.7422 9.85156 72.4453 10.4297C72.1484 11.0078 71.8672 11.6641 71.6016 12.3984C71.3359 13.1172 71.0859 13.875 70.8516 14.6719C70.6172 15.4688 70.4141 16.2422 70.2422 16.9922C70.0703 17.7266 69.9219 18.3984 69.7969 19.0078C69.6875 19.6016 69.6172 20.0625 69.5859 20.3906C69.5391 20.5 69.4375 20.6094 69.2812 20.7188C69.1406 20.8125 68.9844 20.8828 68.8125 20.9297C68.6562 20.9766 68.4922 20.9922 68.3203 20.9766C68.1641 20.9453 68.0469 20.8516 67.9688 20.6953ZM85.2422 20.3906C85.1641 19.9844 85.0938 19.5 85.0312 18.9375C84.9844 18.3594 84.9297 17.7812 84.8672 17.2031C84.8047 16.6094 84.7266 16.0547 84.6328 15.5391C84.5547 15.0234 84.4297 14.6016 84.2578 14.2734C83.4609 15.8984 82.7578 17.1797 82.1484 18.1172C81.5391 19.0391 81 19.7031 80.5312 20.1094C80.0781 20.5 79.6953 20.6875 79.3828 20.6719C79.0703 20.6562 78.8125 20.5156 78.6094 20.25C78.4062 19.9844 78.2578 19.6484 78.1641 19.2422C78.0859 18.8203 78.0312 18.4297 78 18.0703C78 17.7266 78.0781 17.2422 78.2344 16.6172C78.3906 15.9922 78.6016 15.3125 78.8672 14.5781C79.1328 13.8281 79.4453 13.0703 79.8047 12.3047C80.1797 11.5391 80.5781 10.8438 81 10.2188C81.4219 9.59375 81.8594 9.07812 82.3125 8.67188C82.7656 8.26562 83.2188 8.0625 83.6719 8.0625C84.3438 7.95312 84.8359 8.10156 85.1484 8.50781C85.4766 8.89844 85.5391 9.5625 85.3359 10.5C85.3359 11.5312 85.375 12.4141 85.4531 13.1484C85.5469 13.8828 85.6406 14.5859 85.7344 15.2578C85.8438 15.9297 85.9375 16.6328 86.0156 17.3672C86.1094 18.1016 86.1562 18.9844 86.1562 20.0156C86.1562 20.2031 86.1328 20.3672 86.0859 20.5078C86.0547 20.6328 85.8672 20.6953 85.5234 20.6953C85.4766 20.6953 85.4141 20.6562 85.3359 20.5781C85.2734 20.5 85.2422 20.4375 85.2422 20.3906ZM83.9766 9.91406C83.8047 9.66406 83.5703 9.64062 83.2734 9.84375C82.9766 10.0469 82.6641 10.3828 82.3359 10.8516C82.0078 11.3203 81.6719 11.8828 81.3281 12.5391C80.9844 13.1953 80.6641 13.8594 80.3672 14.5312C80.0703 15.2031 79.8125 15.8438 79.5938 16.4531C79.375 17.0469 79.2266 17.5391 79.1484 17.9297C79.1484 18.4922 79.2344 18.8125 79.4062 18.8906C79.5781 18.9531 79.7891 18.8594 80.0391 18.6094C80.2891 18.3594 80.5703 18 80.8828 17.5312C81.2109 17.0625 81.5234 16.5625 81.8203 16.0312C82.1328 15.5 82.4219 14.9844 82.6875 14.4844C82.9688 13.9844 83.1875 13.5781 83.3438 13.2656C83.4844 12.9375 83.5938 12.6328 83.6719 12.3516C83.75 12.0703 83.8125 11.8047 83.8594 11.5547C83.9219 11.2891 83.9531 11.0234 83.9531 10.7578C83.9688 10.4922 83.9766 10.2109 83.9766 9.91406Z" fill="#90E0EF"/>
</svg>
