<svg width="193" height="92" viewBox="0 0 193 92" fill="none" xmlns="http://www.w3.org/2000/svg">
    <path
        d="M48.848 5.672H37.52V35H32.096V5.672H20.72V0.919998H48.848V5.672ZM60.0238 0.919998H65.1118L78.3598 35H72.6958L69.0958 25.736H55.9438L52.3918 35H46.6798L60.0238 0.919998ZM68.0398 21.752L62.5678 6.824L56.9038 21.752H68.0398ZM82.5744 35V0.919998H87.9504V30.248H106.238V35H82.5744ZM38 91.24C35.568 91.24 33.344 90.76 31.328 89.8C29.344 88.84 27.632 87.544 26.192 85.912C24.752 84.248 23.632 82.392 22.832 80.344C22.064 78.264 21.68 76.136 21.68 73.96C21.68 71.688 22.096 69.528 22.928 67.48C23.76 65.4 24.912 63.56 26.384 61.96C27.856 60.328 29.584 59.048 31.568 58.12C33.584 57.16 35.76 56.68 38.096 56.68C40.528 56.68 42.736 57.176 44.72 58.168C46.736 59.16 48.448 60.488 49.856 62.152C51.296 63.816 52.4 65.672 53.168 67.72C53.968 69.768 54.368 71.864 54.368 74.008C54.368 76.28 53.952 78.456 53.12 80.536C52.32 82.584 51.184 84.424 49.712 86.056C48.24 87.656 46.496 88.92 44.48 89.848C42.496 90.776 40.336 91.24 38 91.24ZM27.152 73.96C27.152 76.104 27.6 78.136 28.496 80.056C29.392 81.944 30.64 83.48 32.24 84.664C33.872 85.816 35.808 86.392 38.048 86.392C39.744 86.392 41.264 86.04 42.608 85.336C43.952 84.632 45.088 83.688 46.016 82.504C46.944 81.288 47.648 79.944 48.128 78.472C48.608 77 48.848 75.496 48.848 73.96C48.848 71.816 48.4 69.8 47.504 67.912C46.64 66.024 45.392 64.504 43.76 63.352C42.128 62.168 40.224 61.576 38.048 61.576C36.32 61.576 34.784 61.928 33.44 62.632C32.096 63.336 30.96 64.28 30.032 65.464C29.104 66.648 28.384 67.976 27.872 69.448C27.392 70.92 27.152 72.424 27.152 73.96ZM87.9178 56.92V91H82.4938V75.976H65.3098V91H59.9338V56.92H65.3098V71.176H82.4938V56.92H87.9178ZM105.446 56.92H110.534L123.782 91H118.118L114.518 81.736H101.366L97.8136 91H92.1016L105.446 56.92ZM113.462 77.752L107.99 62.824L102.326 77.752H113.462ZM133.372 66.904V91H127.996V56.92H132.412L151.708 81.544V56.968H157.132V91H152.428L133.372 66.904ZM174.633 56.92H179.721L192.969 91H187.305L183.705 81.736H170.553L167.001 91H161.289L174.633 56.92ZM182.649 77.752L177.177 62.824L171.513 77.752H182.649Z"
        fill="#f6f6f8" />
    <path d="M0 1H10V91H0V1Z" fill="#f6f6f8" />
</svg>